<svg xmlns="http://www.w3.org/2000/svg" viewBox="0 0 1200 800">
  <rect width="1200" height="800" fill="#f7f1e7"/>
  <rect x="70" y="70" width="1060" height="660" rx="36" fill="#fffaf2" stroke="#7a3f2a" stroke-width="8"/>
  <circle cx="390" cy="330" r="92" fill="#c99761"/>
  <circle cx="560" cy="315" r="82" fill="#b98b4b"/>
  <circle cx="720" cy="330" r="72" fill="#73a4a7"/>
  <circle cx="840" cy="350" r="64" fill="#cf4e78"/>
  <circle cx="610" cy="480" r="48" fill="#7a3f2a"/>
  <path d="M240 640c50-150 260-150 310 0H240Z" fill="#7a3f2a" opacity=".9"/>
  <path d="M440 640c44-138 230-138 278 0H440Z" fill="#253858" opacity=".88"/>
  <path d="M610 640c42-126 210-126 252 0H610Z" fill="#2d5f68" opacity=".86"/>
  <path d="M740 640c36-112 180-112 218 0H740Z" fill="#b08d57" opacity=".86"/>
  <path d="M535 640c24-78 126-78 150 0H535Z" fill="#202522"/>
  <text x="600" y="160" text-anchor="middle" font-family="Arial, sans-serif" font-size="42" font-weight="700" fill="#7a3f2a">Family Photo</text>
  <text x="600" y="704" text-anchor="middle" font-family="Arial, sans-serif" font-size="24" fill="#69716c">Replace this file with your family photo when ready</text>
</svg>
